<?xml version="1.0" encoding="utf-8"?>
<!-- Generator: Adobe Illustrator 16.0.0, SVG Export Plug-In . SVG Version: 6.00 Build 0)  -->
<!DOCTYPE svg PUBLIC "-//W3C//DTD SVG 1.1//EN" "http://www.w3.org/Graphics/SVG/1.1/DTD/svg11.dtd">
<svg version="1.1" id="圖層_1" xmlns="http://www.w3.org/2000/svg" xmlns:xlink="http://www.w3.org/1999/xlink" x="0px" y="0px"
	 width="156.045px" height="82.447px" viewBox="0 0 156.045 82.447" enable-background="new 0 0 156.045 82.447"
	 xml:space="preserve">
<polygon fill="#FFFFFF" points="55.049,21.198 46.008,33.99 44.759,21.198 34.317,21.198 28.33,40.687 35.878,40.687 39.556,27.232 
	41.013,40.687 47.029,40.687 56.634,27.481 52.069,40.687 59.627,40.687 65.574,21.198 "/>
<polygon fill="#FFFFFF" points="69.819,21.198 63.873,40.687 71.793,40.687 77.742,21.198 "/>
<polygon fill="#FFFFFF" points="98.829,21.198 95.563,32.915 89.437,21.198 81.602,21.198 75.654,40.687 83.352,40.687 
	86.689,28.971 92.743,40.687 100.579,40.687 106.527,21.198 "/>
<polygon fill="#FFFFFF" points="110.351,21.198 104.401,40.687 112.322,40.687 118.271,21.198 "/>
<path fill="#FFFFFF" d="M51.526,55.295h11.222v2.962h-8.772c-5.966,0-8.012-2.676-8.012-4.921s1.93-3.392,1.93-3.392h-8.946
	c0,0-2.179,3.912,1.168,8.455c3.661,4.968,12.732,4.968,12.732,4.968h17.677v-8.072v-3.68v-0.858H52.91L51.526,55.295z"/>
<path fill="#FFFFFF" d="M54.326,42.66c0,0-10.894-0.316-14.21,5.254h48.387v15.453h7.778V47.914l13.735-0.002l1.604-5.255
	L54.326,42.66z"/>
<polygon fill="#FFFFFF" points="121.779,19.051 122.717,19.051 122.717,21.865 123.509,21.865 123.509,19.051 124.463,19.051 
	124.463,18.392 121.779,18.392 "/>
<path fill="#FFFFFF" d="M128.457,18.391h-1.032l-0.374,1.155c-0.114,0.387-0.232,0.845-0.331,1.247h-0.017
	c-0.078-0.407-0.187-0.84-0.296-1.242l-0.341-1.159h-1.052l-0.223,3.473h0.731l0.061-1.319c0.026-0.432,0.041-0.968,0.063-1.438
	h0.011c0.083,0.454,0.201,0.948,0.315,1.354l0.373,1.347h0.617l0.424-1.355c0.135-0.408,0.281-0.903,0.39-1.346h0.016
	c0,0.505,0.018,1.01,0.031,1.427l0.052,1.329h0.771L128.457,18.391z"/>
</svg>
