<?xml version="1.0" encoding="utf-8"?>
<!-- Generator: Adobe Illustrator 16.0.0, SVG Export Plug-In . SVG Version: 6.00 Build 0)  -->
<!DOCTYPE svg PUBLIC "-//W3C//DTD SVG 1.1//EN" "http://www.w3.org/Graphics/SVG/1.1/DTD/svg11.dtd">
<svg version="1.1" id="圖層_1" xmlns="http://www.w3.org/2000/svg" xmlns:xlink="http://www.w3.org/1999/xlink" x="0px" y="0px"
	 width="223.333px" height="69.667px" viewBox="0 0 223.333 69.667" enable-background="new 0 0 223.333 69.667"
	 xml:space="preserve">
<g>
	<g>
		<path fill="#1B1B1B" d="M194.049,37.512V20.354h-2.334v19.073h17.521v-1.916L194.049,37.512L194.049,37.512z M161.25,20.355
			h-16.057v19.073h16.258c0.325,0,0.662-0.011,1.008-0.028c0.808-0.041,1.601-0.168,2.377-0.385
			c0.777-0.223,1.457-0.615,2.033-1.189c0.537-0.553,0.945-1.244,1.227-2.072c0.275-0.83,0.475-1.69,0.59-2.588
			c0.098-0.629,0.152-1.248,0.174-1.857c0.02-0.611,0.027-1.172,0.027-1.688c0-2.992-0.439-5.281-1.325-6.861
			C166.678,21.173,164.575,20.373,161.25,20.355z M165.691,35.41c-0.522,1.42-2.249,2.121-5.19,2.103h-12.97V22.298h13.201
			c2.71,0,4.341,0.644,4.899,1.932c0.557,1.287,0.836,3.092,0.836,5.418C166.467,32.069,166.208,33.989,165.691,35.41z
			 M133.929,20.183h-4.236c-0.713,0-1.427,0.006-2.138,0.014c-0.711,0.01-1.42,0.024-2.131,0.042
			c-1.537,0.038-2.896,0.306-4.079,0.8c-1.181,0.496-1.964,1.592-2.351,3.289c-0.134,0.61-0.227,1.24-0.289,1.887
			c-0.055,0.648-0.082,1.298-0.082,1.945c-0.022,0.305-0.031,0.621-0.031,0.944v0.974c0,0.476,0.007,1,0.018,1.57
			c0.006,0.573,0.042,1.154,0.098,1.746c0.063,0.727,0.166,1.439,0.319,2.145c0.153,0.707,0.392,1.314,0.722,1.828
			c0.42,0.65,0.971,1.122,1.64,1.42c0.676,0.293,1.376,0.5,2.104,0.613c0.098,0.018,0.196,0.028,0.301,0.028
			c0.11,0,0.209,0.008,0.304,0.024c0.675,0.082,1.353,0.127,2.034,0.146s1.357,0.027,2.033,0.027h4.295
			c0.785,0,1.578-0.006,2.377-0.015s1.59-0.052,2.377-0.129c1.845-0.134,3.236-0.571,4.181-1.313
			c0.938-0.743,1.507-2.029,1.698-3.858c0.097-0.858,0.154-1.72,0.174-2.574c0.02-0.858,0.027-1.717,0.027-2.577
			c0-3.887-0.562-6.354-1.686-7.402C140.487,20.707,137.92,20.183,133.929,20.183z M140.874,29.648c0,0.324-0.01,0.648-0.028,0.973
			c0,0.342-0.003,0.676-0.015,1c-0.012,0.323-0.014,0.647-0.014,0.973c0,1.336-0.193,2.443-0.576,3.318
			c-0.386,0.875-1.349,1.393-2.885,1.543c-0.385,0.037-0.771,0.067-1.164,0.086c-0.396,0.021-0.787,0.039-1.17,0.058
			c-0.402,0.019-0.803,0.028-1.195,0.028c-0.396,0-0.783-0.011-1.166-0.028h-1.787l-4.959-0.058
			c-2.383-0.039-3.795-0.552-4.236-1.543c-0.441-0.992-0.662-2.535-0.662-4.634v-1.401l0.087-2.832
			c0.06-2.154,0.444-3.493,1.165-4.016c0.719-0.525,2.117-0.805,4.195-0.846l4.469-0.084l4.521,0.059h0.606
			c0.215,0,0.414,0.008,0.606,0.025c0.344,0.02,0.688,0.05,1.037,0.087c0.348,0.039,0.67,0.104,0.977,0.201
			c0.041,0,0.074,0.004,0.104,0.014c0.031,0.009,0.053,0.023,0.072,0.041c0.229,0.078,0.459,0.189,0.68,0.331
			c0.219,0.143,0.397,0.318,0.532,0.529c0.251,0.361,0.427,0.84,0.534,1.43c0.104,0.59,0.175,1.211,0.215,1.859
			c0.02,0.324,0.034,0.652,0.042,0.986c0.011,0.332,0.015,0.644,0.015,0.929V29.648z M101.446,36.71L89.973,20.354h-3.804v19.073
			h2.335V22.298l11.989,17.13h1.874l12.018-17.13v17.13h2.338V20.354h-3.748L101.446,36.71z"/>
		<path fill="#4C4C4C" d="M189.813,20.354h-19.052v1.944h19.052V20.354z M170.761,37.521v1.906h19.253v-1.916
			C183.586,37.512,177.172,37.521,170.761,37.521z M189.208,28.589h-18.445v1.945h18.445V28.589z"/>
		<path fill="#4C4C4C" d="M72.274,20.073L66.658,32.08l-5.702-12.007h-9.019v18.763h5.092V22.958l7.389,15.875h4.335l7.389-15.729
			v15.729h5.092V20.073H72.274z M5.572,25.125h7.942v13.711h5.731V25.125h7.238v-5.051H5.572V25.125z M48.372,20.943
			c-0.51-0.375-1.063-0.648-1.663-0.829c-0.597-0.182-1.247-0.268-1.944-0.268h-9.747c-2.452,0.032-5.08,0.528-5.919,3.135
			c-0.263,0.81-0.393,1.813-0.393,3.013c0,0.492,0.025,0.945,0.075,1.362h-0.038c0.337,3.188,2.718,3.968,5.686,3.968l8.531,0.266
			c0.262,0.018,0.496,0.06,0.708,0.135c0.208,0.084,0.397,0.199,0.572,0.355c0.174,0.176,0.305,0.356,0.392,0.551
			c0.088,0.192,0.132,0.404,0.132,0.635c-0.015,0.258-0.083,0.495-0.203,0.711c-0.123,0.221-0.306,0.413-0.554,0.588
			c-0.247,0.172-0.518,0.305-0.81,0.389c-0.295,0.09-0.616,0.131-0.965,0.131H35.25c-0.233,0-0.437-0.047-0.617-0.148
			c-0.183-0.105-0.343-0.254-0.489-0.455c-0.145-0.232-0.251-0.475-0.33-0.723c-0.072-0.252-0.106-0.521-0.106-0.811h-5.003v2.137
			c0,0.521,0.126,0.994,0.372,1.438c0.247,0.438,0.617,0.843,1.111,1.217c0.509,0.375,1.063,0.649,1.663,0.826
			c0.598,0.186,1.246,0.271,1.945,0.271h9.746c1.061-0.015,1.987-0.125,2.773-0.336c0.79-0.205,1.445-0.518,1.969-0.935
			c0.523-0.435,0.916-1.054,1.178-1.868c0.262-0.809,0.393-1.813,0.393-3.008c0-2.582-0.676-4.773-3.706-5.333H44.13l-8.53-0.267
			c-0.263-0.014-0.494-0.058-0.708-0.133c-0.208-0.082-0.397-0.197-0.571-0.356c-0.175-0.172-0.306-0.354-0.394-0.549
			c-0.087-0.192-0.13-0.404-0.13-0.636c0.014-0.26,0.083-0.494,0.203-0.711c0.123-0.222,0.306-0.414,0.553-0.586
			c0.247-0.174,0.519-0.303,0.81-0.392c0.296-0.084,0.616-0.128,0.964-0.128h6.982c0.233,0,0.437,0.048,0.616,0.148
			c0.185,0.105,0.345,0.254,0.49,0.457c0.146,0.229,0.252,0.471,0.33,0.721c0.072,0.251,0.106,0.52,0.106,0.808h5.004v-2.134
			c0-0.521-0.126-0.997-0.374-1.439C49.234,21.722,48.867,21.316,48.372,20.943z"/>
		<g>
			<path fill="#FFFFFF" d="M90.891,46.32h-0.66c0-0.029-0.001-0.068-0.004-0.111c-0.002-0.045-0.006-0.088-0.012-0.129
				c-0.011-0.107-0.04-0.215-0.085-0.314c-0.046-0.104-0.124-0.18-0.232-0.229c-0.109-0.054-0.257-0.092-0.444-0.117
				c-0.186-0.021-0.381-0.039-0.582-0.049c-0.136-0.008-0.268-0.011-0.395-0.014c-0.127-0.006-0.247-0.006-0.354-0.006h-0.229
				c-0.119,0.006-0.265,0.012-0.435,0.018c-0.172,0.006-0.35,0.017-0.534,0.032c-0.195,0.015-0.386,0.037-0.569,0.067
				c-0.185,0.029-0.338,0.07-0.455,0.123c-0.137,0.061-0.229,0.148-0.274,0.27c-0.047,0.119-0.075,0.249-0.086,0.38
				c0,0.02,0,0.031,0,0.05c0,0.017,0,0.03,0,0.049c0,0.35,0.101,0.574,0.302,0.678c0.201,0.104,0.456,0.158,0.766,0.17
				c0.047,0.003,0.097,0.011,0.145,0.011c0.05,0.003,0.1,0.005,0.155,0.005c0.05,0,0.097,0,0.147,0c0.049,0,0.098,0,0.146,0
				c0.108,0,0.216,0,0.322,0c0.105,0,0.213-0.002,0.322-0.008c0.104,0,0.209,0,0.316,0c0.11,0,0.215,0,0.319,0
				c0.092,0,0.186,0,0.28,0c0.095,0,0.192,0.003,0.29,0.008c0.092,0.006,0.186,0.012,0.282,0.016
				c0.095,0.007,0.187,0.018,0.28,0.027c0.499,0.055,0.86,0.178,1.082,0.383c0.223,0.201,0.334,0.56,0.334,1.069
				c0,0.296-0.046,0.56-0.138,0.79c-0.092,0.235-0.288,0.412-0.587,0.543c-0.162,0.074-0.357,0.129-0.583,0.156
				c-0.225,0.031-0.453,0.051-0.687,0.063c-0.124,0.004-0.248,0.006-0.371,0.011c-0.122,0.003-0.241,0.005-0.354,0.005h-0.432
				c-0.135,0-0.271-0.002-0.41-0.005c-0.139-0.005-0.276-0.007-0.412-0.011c-0.142-0.008-0.281-0.013-0.419-0.021
				c-0.139-0.006-0.277-0.018-0.412-0.036c-0.569-0.073-0.941-0.228-1.112-0.463c-0.17-0.237-0.255-0.631-0.255-1.183l0.659-0.01
				v0.111c0,0.01,0,0.018,0,0.02c0,0.004,0,0.01,0,0.013c0.006,0.207,0.028,0.385,0.069,0.543c0.041,0.155,0.178,0.269,0.411,0.341
				c0.13,0.036,0.282,0.064,0.457,0.083c0.172,0.019,0.353,0.031,0.537,0.044c0.163,0.007,0.326,0.01,0.489,0.01
				c0.162,0.004,0.307,0.006,0.432,0.006c0.085,0,0.171-0.002,0.255-0.006c0.085,0,0.171-0.003,0.256-0.003
				c0.174-0.006,0.346-0.013,0.518-0.026c0.171-0.014,0.341-0.031,0.509-0.055c0.31-0.035,0.536-0.119,0.68-0.254
				c0.143-0.129,0.215-0.354,0.215-0.665c0-0.413-0.104-0.667-0.313-0.756c-0.209-0.09-0.504-0.134-0.885-0.14l-1.245-0.027
				c-0.048,0.007-0.098,0.012-0.146,0.012c-0.049,0-0.099-0.005-0.147-0.012c-0.195,0-0.39-0.001-0.587-0.007
				c-0.195-0.006-0.388-0.015-0.578-0.024c-0.472-0.025-0.856-0.123-1.151-0.289c-0.295-0.168-0.445-0.496-0.445-0.986
				c0-0.329,0.056-0.623,0.167-0.885c0.111-0.262,0.333-0.453,0.665-0.578c0.151-0.056,0.331-0.096,0.537-0.131
				c0.208-0.03,0.421-0.051,0.645-0.063c0.195-0.018,0.386-0.025,0.573-0.027s0.354-0.005,0.501-0.005
				c0.129,0,0.263,0.003,0.399,0.005c0.135,0.002,0.271,0.008,0.407,0.012c0.13,0.004,0.262,0.013,0.398,0.021
				c0.136,0.009,0.269,0.019,0.398,0.035c0.479,0.05,0.823,0.19,1.035,0.43c0.212,0.236,0.318,0.587,0.318,1.048L90.891,46.32
				L90.891,46.32z"/>
			<path fill="#FFFFFF" d="M98.731,48.43c0,0.661-0.097,1.124-0.292,1.392c-0.195,0.264-0.699,0.4-1.514,0.418l-1.402,0.023
				c-0.048,0-0.098,0-0.15,0c-0.051,0-0.101,0.001-0.15,0.011c-0.048,0-0.1,0-0.15,0c-0.052,0-0.103,0-0.15,0
				c-0.202,0-0.401-0.005-0.603-0.017c-0.201-0.008-0.402-0.021-0.603-0.043c-0.478-0.043-0.832-0.188-1.063-0.445
				c-0.231-0.252-0.36-0.614-0.388-1.086c-0.005-0.085-0.01-0.172-0.016-0.256c-0.004-0.09-0.007-0.174-0.007-0.26
				c-0.006-0.084-0.009-0.166-0.009-0.252s0-0.17,0-0.258c0-0.105,0-0.213,0-0.318c0-0.103,0.003-0.209,0.009-0.317
				c0.004-0.155,0.015-0.312,0.027-0.471c0.014-0.16,0.034-0.316,0.062-0.472c0.097-0.494,0.287-0.817,0.57-0.974
				c0.28-0.155,0.651-0.249,1.106-0.28c0.163-0.017,0.327-0.029,0.493-0.033c0.165-0.004,0.332-0.012,0.5-0.016
				c0.082,0,0.165,0,0.249,0s0.168,0,0.249,0c0.064,0,0.13,0,0.196,0c0.063,0,0.129-0.002,0.195-0.009c0.065,0,0.129,0,0.195,0
				c0.065,0,0.132,0,0.195,0c0.238,0,0.475,0.007,0.708,0.021c0.233,0.016,0.467,0.043,0.701,0.094
				c0.444,0.086,0.715,0.294,0.81,0.619c0.094,0.328,0.149,0.679,0.166,1.053l-0.651-0.01v-0.047c0-0.047-0.001-0.104-0.004-0.166
				c-0.003-0.063-0.007-0.123-0.012-0.191c-0.01-0.117-0.035-0.229-0.073-0.336c-0.039-0.107-0.101-0.188-0.187-0.243
				c-0.099-0.063-0.253-0.11-0.464-0.144c-0.213-0.025-0.438-0.045-0.677-0.049c-0.12-0.008-0.239-0.011-0.358-0.014
				c-0.12-0.006-0.231-0.006-0.334-0.006c-0.298,0-0.597,0-0.892,0.006c-0.296,0.003-0.593,0.018-0.892,0.044
				c-0.466,0.037-0.766,0.121-0.896,0.255c-0.13,0.131-0.219,0.42-0.268,0.866c-0.01,0.114-0.019,0.228-0.024,0.342
				c-0.006,0.111-0.009,0.228-0.009,0.337c-0.005,0.117-0.008,0.235-0.008,0.35c0,0.115,0,0.225,0,0.341
				c0,0.569,0.054,1.013,0.163,1.325c0.108,0.316,0.491,0.475,1.147,0.475c0.211,0.007,0.424,0.01,0.635,0.01
				c0.212,0.004,0.424,0.006,0.636,0.006l1.212-0.024c0.446-0.004,0.78-0.056,1.002-0.156c0.224-0.098,0.333-0.39,0.333-0.866V48.43
				H98.731z"/>
			<path fill="#FFFFFF" d="M100.832,49.001l-0.692,1.213h-0.772l3.208-5.389h0.88l3.233,5.389h-0.757l-0.71-1.213H100.832z
				 M103.015,45.306l-1.872,3.156h3.77L103.015,45.306z"/>
			<path fill="#FFFFFF" d="M112.313,49.671v0.543h-4.95v-5.389h0.659v4.846H112.313z"/>
			<path fill="#FFFFFF" d="M113.975,47.152h4.552v0.542h-4.552v1.978h4.779v0.543h-5.439v-5.389h5.385v0.549h-4.725V47.152z"/>
			<path fill="#FFFFFF" d="M129.417,50.214h-0.533l-3.389-4.84v4.84h-0.656v-5.389h1.072l3.241,4.621l3.257-4.621h1.059v5.389
				h-0.659v-4.84L129.417,50.214z"/>
			<path fill="#FFFFFF" d="M135.724,44.826v5.389h-0.659v-5.389H135.724z"/>
			<path fill="#FFFFFF" d="M137.977,50.214h-0.655v-5.389h1.095l5.01,4.87v-4.87h0.656v5.389H143l-5.023-4.895V50.214z"/>
			<path fill="#FFFFFF" d="M146.342,44.826v5.389h-0.66v-5.389H146.342z"/>
			<path fill="#FFFFFF" d="M148.482,49.001l-0.69,1.213h-0.771l3.203-5.389h0.882l3.231,5.389h-0.758l-0.707-1.213H148.482z
				 M150.665,45.306l-1.873,3.156h3.771L150.665,45.306z"/>
			<path fill="#FFFFFF" d="M156.935,50.214h-0.659v-4.84h-2.734v-0.549h6.146v0.549h-2.752V50.214z"/>
			<path fill="#FFFFFF" d="M166.815,44.826v3.726c0,0.815-0.18,1.302-0.525,1.452c-0.347,0.151-0.89,0.236-1.637,0.26
				c-0.005,0-0.011,0-0.02,0c-0.01,0-0.016,0-0.02,0c-0.183,0.006-0.359,0.011-0.543,0.011c-0.183,0-0.365,0-0.551,0
				c-0.254,0-0.512-0.003-0.773-0.005c-0.258-0.005-0.521-0.014-0.779-0.021c-0.532-0.021-0.926-0.144-1.172-0.363
				c-0.254-0.223-0.377-0.596-0.377-1.131v-3.928h0.66v3.848c0,0.468,0.106,0.754,0.324,0.852c0.219,0.102,0.54,0.153,0.971,0.166
				l1.164,0.007l1.264-0.024c0.447-0.002,0.785-0.06,1.013-0.16c0.228-0.104,0.339-0.398,0.339-0.889v-0.129v-3.668h0.662V44.826z"
				/>
			<path fill="#FFFFFF" d="M172.78,44.826c0.615,0.004,1.071,0.107,1.381,0.31c0.305,0.204,0.461,0.636,0.461,1.301
				c0,0.474-0.074,0.803-0.218,0.985c-0.143,0.188-0.457,0.318-0.938,0.387c0.313,0.037,0.57,0.115,0.764,0.238
				c0.197,0.121,0.294,0.358,0.294,0.713v1.455h-0.651V49.02c0-0.411-0.09-0.673-0.271-0.797c-0.183-0.12-0.476-0.181-0.878-0.181
				h-3.702v2.172h-0.661v-5.389H172.78z M172.657,47.494c0.465,0.004,0.791-0.063,0.987-0.201c0.192-0.142,0.294-0.44,0.294-0.901
				c0-0.449-0.115-0.731-0.336-0.841c-0.221-0.112-0.542-0.166-0.962-0.166h-3.621v2.109H172.657z"/>
			<path fill="#FFFFFF" d="M176.663,47.152h4.555v0.542h-4.555v1.978h4.784v0.543h-5.442v-5.389h5.381v0.549h-4.723V47.152z"/>
			<path fill="#FFFFFF" d="M188.773,46.32h-0.663c0-0.029,0-0.068-0.002-0.111c-0.003-0.045-0.006-0.088-0.012-0.129
				c-0.012-0.107-0.039-0.215-0.084-0.314c-0.047-0.104-0.123-0.18-0.232-0.229c-0.107-0.054-0.26-0.092-0.443-0.117
				c-0.189-0.021-0.385-0.039-0.582-0.049c-0.137-0.008-0.269-0.011-0.397-0.014c-0.128-0.006-0.241-0.006-0.353-0.006h-0.229
				c-0.117,0.006-0.263,0.012-0.438,0.018c-0.17,0.006-0.346,0.017-0.529,0.032c-0.2,0.015-0.387,0.037-0.572,0.067
				c-0.184,0.029-0.338,0.07-0.453,0.123c-0.139,0.061-0.229,0.148-0.275,0.27c-0.045,0.119-0.072,0.249-0.084,0.38
				c0,0.02,0,0.031,0,0.05c0,0.017,0,0.03,0,0.049c0,0.35,0.102,0.574,0.301,0.678c0.201,0.104,0.457,0.158,0.766,0.17
				c0.047,0.003,0.098,0.011,0.148,0.011c0.048,0.003,0.098,0.005,0.152,0.005c0.051,0,0.099,0,0.146,0s0.1,0,0.146,0
				c0.106,0,0.215,0,0.321,0s0.214-0.002,0.318-0.008c0.104,0,0.21,0,0.319,0c0.108,0,0.213,0,0.318,0c0.092,0,0.184,0,0.278,0
				c0.101,0,0.194,0.003,0.292,0.008c0.092,0.006,0.186,0.012,0.281,0.016c0.094,0.007,0.186,0.018,0.277,0.027
				c0.502,0.055,0.861,0.178,1.084,0.383c0.225,0.201,0.334,0.56,0.334,1.069c0,0.296-0.045,0.56-0.138,0.79
				c-0.093,0.235-0.288,0.412-0.587,0.543c-0.165,0.074-0.359,0.129-0.583,0.156c-0.226,0.031-0.455,0.051-0.688,0.063
				c-0.125,0.004-0.248,0.006-0.369,0.011c-0.125,0.003-0.239,0.005-0.354,0.005h-0.432c-0.137,0-0.274-0.002-0.413-0.005
				c-0.138-0.005-0.276-0.007-0.41-0.011c-0.142-0.008-0.28-0.013-0.42-0.021c-0.138-0.006-0.274-0.018-0.412-0.036
				c-0.569-0.073-0.938-0.228-1.11-0.463c-0.17-0.237-0.257-0.631-0.257-1.183l0.66-0.01v0.111c0,0.01,0,0.018,0,0.02
				c0,0.004,0,0.01,0,0.013c0.006,0.207,0.03,0.385,0.069,0.543c0.039,0.155,0.177,0.269,0.412,0.341
				c0.131,0.036,0.281,0.064,0.455,0.083s0.351,0.031,0.537,0.044c0.164,0.007,0.323,0.01,0.488,0.01
				c0.162,0.004,0.309,0.006,0.43,0.006c0.088,0,0.172-0.002,0.26-0.006c0.082,0,0.166-0.003,0.257-0.003
				c0.17-0.006,0.344-0.013,0.515-0.026c0.174-0.014,0.342-0.031,0.512-0.055c0.309-0.035,0.534-0.119,0.68-0.254
				c0.144-0.129,0.217-0.354,0.217-0.665c0-0.413-0.105-0.667-0.316-0.756c-0.207-0.09-0.504-0.134-0.884-0.14l-1.243-0.027
				c-0.052,0.007-0.099,0.012-0.146,0.012c-0.051,0-0.1-0.005-0.146-0.012c-0.199,0-0.395-0.001-0.587-0.007
				c-0.196-0.006-0.389-0.015-0.579-0.024c-0.473-0.025-0.854-0.123-1.152-0.289c-0.293-0.168-0.443-0.496-0.443-0.986
				c0-0.329,0.057-0.623,0.168-0.885s0.332-0.453,0.661-0.578c0.155-0.056,0.334-0.096,0.54-0.131
				c0.203-0.03,0.42-0.051,0.641-0.063c0.197-0.018,0.387-0.025,0.576-0.027c0.188-0.002,0.355-0.005,0.502-0.005
				c0.128,0,0.26,0.003,0.396,0.005c0.138,0.002,0.271,0.008,0.408,0.012c0.131,0.004,0.264,0.013,0.399,0.021
				c0.134,0.009,0.269,0.019,0.399,0.035c0.476,0.05,0.819,0.19,1.031,0.43c0.215,0.236,0.319,0.587,0.319,1.048v-0.01H188.773z"/>
		</g>
		<g>
			<path fill="#1B1B1B" d="M90.959,46.253h-0.66c0-0.033,0-0.069-0.003-0.113c-0.003-0.043-0.007-0.084-0.012-0.13
				c-0.011-0.105-0.04-0.212-0.085-0.313c-0.047-0.104-0.125-0.179-0.233-0.227c-0.108-0.057-0.256-0.096-0.445-0.12
				c-0.187-0.022-0.38-0.039-0.58-0.05c-0.137-0.006-0.269-0.012-0.396-0.016c-0.127-0.003-0.247-0.003-0.355-0.003h-0.226
				c-0.121,0.003-0.265,0.013-0.436,0.017c-0.172,0.007-0.351,0.019-0.536,0.031c-0.193,0.017-0.383,0.039-0.567,0.069
				c-0.186,0.029-0.337,0.07-0.457,0.124c-0.136,0.059-0.228,0.148-0.273,0.27c-0.046,0.119-0.075,0.248-0.085,0.381
				c0,0.016,0,0.031,0,0.046c0,0.016,0,0.034,0,0.051c0,0.349,0.1,0.576,0.3,0.677c0.202,0.104,0.457,0.16,0.767,0.172
				c0.047,0.006,0.097,0.008,0.146,0.012c0.049,0.002,0.101,0.002,0.155,0.002c0.049,0,0.098,0,0.146,0c0.05,0,0.098,0,0.147,0
				c0.107,0,0.214,0,0.321,0c0.107,0,0.214-0.002,0.323-0.008c0.103,0,0.208,0,0.317,0c0.107,0,0.214,0,0.315,0
				c0.094,0,0.187,0,0.283,0c0.093,0,0.191,0.002,0.288,0.008c0.091,0.007,0.186,0.014,0.28,0.02
				c0.096,0.003,0.189,0.014,0.282,0.021c0.499,0.056,0.861,0.184,1.083,0.385c0.222,0.202,0.332,0.561,0.332,1.07
				c0,0.297-0.045,0.56-0.137,0.791c-0.092,0.232-0.288,0.41-0.586,0.543c-0.163,0.076-0.357,0.127-0.583,0.156
				c-0.224,0.028-0.454,0.047-0.688,0.063c-0.125,0.005-0.247,0.008-0.37,0.01c-0.122,0.002-0.24,0.003-0.354,0.003h-0.432
				c-0.135,0-0.273-0.001-0.41-0.003c-0.139-0.002-0.276-0.005-0.412-0.01c-0.141-0.006-0.28-0.016-0.419-0.021
				c-0.138-0.009-0.275-0.021-0.41-0.037c-0.571-0.074-0.941-0.23-1.112-0.466c-0.172-0.231-0.257-0.628-0.257-1.183l0.66-0.01
				v0.113c0,0.014,0,0.02,0,0.021s0,0.006,0,0.011c0.005,0.204,0.029,0.386,0.068,0.541c0.042,0.155,0.179,0.271,0.412,0.34
				c0.131,0.04,0.282,0.065,0.456,0.087c0.173,0.018,0.353,0.033,0.537,0.043c0.164,0.006,0.327,0.01,0.49,0.012
				c0.164,0.005,0.306,0.005,0.432,0.005c0.087,0,0.171,0,0.255-0.005c0.085-0.002,0.17-0.002,0.258-0.002
				c0.173-0.006,0.346-0.018,0.516-0.029c0.171-0.014,0.341-0.03,0.51-0.055c0.309-0.036,0.536-0.119,0.68-0.254
				c0.144-0.127,0.215-0.354,0.215-0.666c0-0.414-0.104-0.668-0.314-0.754s-0.503-0.135-0.883-0.143l-1.246-0.025
				c-0.049,0.006-0.097,0.01-0.146,0.01c-0.049,0-0.098-0.004-0.147-0.01c-0.195,0-0.39-0.002-0.586-0.008
				c-0.195-0.004-0.386-0.014-0.578-0.023c-0.471-0.025-0.855-0.123-1.152-0.287c-0.295-0.172-0.443-0.495-0.443-0.987
				c0-0.33,0.056-0.625,0.167-0.887c0.113-0.261,0.333-0.452,0.664-0.579c0.153-0.051,0.332-0.096,0.538-0.125
				c0.206-0.033,0.42-0.053,0.644-0.064c0.195-0.018,0.386-0.027,0.573-0.029c0.186-0.002,0.355-0.004,0.501-0.004
				c0.132,0,0.264,0.002,0.4,0.004c0.134,0.002,0.271,0.006,0.405,0.013c0.132,0.003,0.264,0.012,0.4,0.021
				c0.136,0.008,0.269,0.019,0.399,0.033c0.477,0.049,0.821,0.191,1.033,0.43c0.212,0.237,0.318,0.588,0.318,1.052v-0.009H90.959z"
				/>
			<path fill="#1B1B1B" d="M98.801,48.359c0,0.663-0.096,1.127-0.294,1.393c-0.195,0.264-0.7,0.403-1.513,0.42l-1.4,0.021
				c-0.049,0-0.1,0-0.151,0c-0.051,0-0.102,0.006-0.15,0.01c-0.049,0-0.099,0-0.15,0c-0.052,0-0.101,0-0.151,0
				c-0.2,0-0.401-0.004-0.602-0.013c-0.201-0.007-0.402-0.024-0.602-0.043c-0.478-0.044-0.833-0.19-1.063-0.444
				c-0.23-0.252-0.36-0.613-0.387-1.089c-0.004-0.084-0.011-0.173-0.016-0.258c-0.006-0.084-0.007-0.171-0.007-0.259
				c-0.006-0.08-0.009-0.163-0.009-0.248c0-0.089,0-0.173,0-0.262c0-0.104,0-0.213,0-0.317s0.002-0.208,0.009-0.315
				c0.005-0.156,0.014-0.314,0.029-0.474c0.012-0.158,0.034-0.313,0.06-0.472c0.098-0.491,0.288-0.815,0.57-0.973
				c0.283-0.154,0.652-0.248,1.107-0.276c0.162-0.017,0.327-0.031,0.493-0.034c0.165-0.007,0.333-0.012,0.501-0.018
				c0.081,0,0.165,0,0.249,0c0.083,0,0.167,0,0.248,0c0.066,0,0.13,0,0.196,0c0.064,0,0.129-0.002,0.195-0.008
				c0.065,0,0.13,0,0.195,0c0.065,0,0.131,0,0.196,0c0.24,0,0.476,0.008,0.709,0.021c0.233,0.015,0.467,0.044,0.7,0.096
				c0.445,0.086,0.715,0.289,0.81,0.618c0.096,0.329,0.151,0.678,0.167,1.051l-0.652-0.008v-0.046c0-0.052,0-0.106-0.004-0.169
				c-0.002-0.061-0.006-0.124-0.012-0.188c-0.01-0.119-0.035-0.232-0.073-0.339c-0.038-0.108-0.1-0.188-0.188-0.245
				c-0.097-0.063-0.251-0.109-0.463-0.142c-0.212-0.027-0.438-0.045-0.676-0.05c-0.12-0.006-0.239-0.012-0.358-0.016
				c-0.119-0.003-0.231-0.003-0.334-0.003c-0.299,0-0.595,0-0.892,0.003c-0.297,0.004-0.593,0.021-0.892,0.045
				c-0.468,0.039-0.766,0.127-0.896,0.254c-0.13,0.133-0.219,0.424-0.268,0.871c-0.012,0.113-0.02,0.225-0.025,0.338
				c-0.006,0.111-0.009,0.229-0.009,0.338c-0.006,0.121-0.008,0.235-0.008,0.351c0,0.113,0,0.224,0,0.338
				c0,0.573,0.054,1.015,0.163,1.329c0.109,0.314,0.491,0.473,1.147,0.473c0.212,0.006,0.424,0.012,0.635,0.012
				c0.212,0.006,0.424,0.006,0.636,0.006l1.214-0.025c0.444-0.006,0.778-0.056,1.001-0.156c0.223-0.101,0.334-0.39,0.334-0.867
				V48.36L98.801,48.359L98.801,48.359z"/>
			<path fill="#1B1B1B" d="M100.902,48.936l-0.692,1.212h-0.774l3.208-5.387h0.88l3.233,5.387h-0.758l-0.708-1.212H100.902z
				 M103.084,45.236l-1.874,3.158h3.77L103.084,45.236z"/>
			<path fill="#1B1B1B" d="M112.381,49.604v0.543h-4.95V44.76h0.66v4.844H112.381z"/>
			<path fill="#1B1B1B" d="M114.043,47.083h4.553v0.545h-4.553v1.977h4.777v0.543h-5.439v-5.387h5.385v0.548h-4.723V47.083z"/>
			<path fill="#1B1B1B" d="M129.483,50.147h-0.529l-3.389-4.839v4.839h-0.66V44.76h1.076l3.241,4.618l3.255-4.618h1.061v5.387h-0.66
				v-4.839L129.483,50.147z"/>
			<path fill="#1B1B1B" d="M135.792,44.761v5.387h-0.66v-5.387H135.792z"/>
			<path fill="#1B1B1B" d="M138.043,50.147h-0.655V44.76h1.099l5.01,4.87v-4.87h0.66v5.387h-1.087l-5.024-4.896v4.896H138.043z"/>
			<path fill="#1B1B1B" d="M146.411,44.761v5.387h-0.658v-5.387H146.411z"/>
			<path fill="#1B1B1B" d="M148.549,48.936l-0.691,1.212h-0.771l3.207-5.387h0.881l3.234,5.387h-0.76l-0.71-1.212H148.549z
				 M150.736,45.236l-1.878,3.158h3.773L150.736,45.236z"/>
			<path fill="#1B1B1B" d="M157,50.147h-0.655v-4.839h-2.738V44.76h6.149v0.548H157V50.147L157,50.147z"/>
			<path fill="#1B1B1B" d="M166.879,44.761v3.723c0,0.818-0.174,1.305-0.521,1.453c-0.347,0.15-0.891,0.238-1.635,0.257
				c-0.01,0-0.016,0-0.023,0s-0.017,0-0.02,0c-0.18,0.007-0.36,0.009-0.542,0.009c-0.181,0-0.363,0-0.55,0
				c-0.254,0-0.512-0.002-0.772-0.002c-0.26-0.004-0.524-0.012-0.78-0.02c-0.531-0.021-0.924-0.143-1.175-0.367
				c-0.25-0.219-0.373-0.595-0.373-1.129v-3.924h0.658v3.843c0,0.469,0.108,0.752,0.324,0.853c0.218,0.102,0.543,0.156,0.971,0.166
				l1.166,0.01l1.261-0.026c0.45-0.005,0.789-0.06,1.016-0.163c0.225-0.1,0.337-0.396,0.337-0.886V48.43v-3.668L166.879,44.761
				L166.879,44.761z"/>
			<path fill="#1B1B1B" d="M172.849,44.761c0.612,0.003,1.071,0.105,1.379,0.308c0.306,0.203,0.459,0.636,0.459,1.298
				c0,0.475-0.069,0.803-0.216,0.99c-0.143,0.188-0.455,0.314-0.939,0.384c0.313,0.035,0.57,0.116,0.768,0.237
				c0.195,0.12,0.291,0.359,0.291,0.714v1.456h-0.648v-1.197c0-0.406-0.093-0.675-0.273-0.796c-0.184-0.118-0.477-0.181-0.879-0.181
				h-3.701v2.173h-0.662V44.76L172.849,44.761L172.849,44.761z M172.727,47.423c0.461,0.006,0.788-0.062,0.984-0.201
				c0.195-0.139,0.293-0.439,0.293-0.896c0-0.453-0.111-0.734-0.334-0.847c-0.224-0.108-0.543-0.161-0.961-0.161h-3.623v2.105
				H172.727z"/>
			<path fill="#1B1B1B" d="M176.732,47.083h4.552v0.545h-4.552v1.977h4.782v0.543h-5.443v-5.387h5.385v0.548h-4.724V47.083z"/>
			<path fill="#1B1B1B" d="M188.84,46.253h-0.66c0-0.033,0-0.069-0.004-0.113c-0.006-0.043-0.006-0.084-0.012-0.13
				c-0.014-0.105-0.041-0.212-0.086-0.313c-0.045-0.104-0.123-0.179-0.231-0.227c-0.108-0.057-0.259-0.096-0.445-0.12
				c-0.187-0.022-0.38-0.039-0.581-0.05c-0.137-0.006-0.268-0.012-0.395-0.016c-0.127-0.003-0.245-0.003-0.354-0.003h-0.229
				c-0.117,0.003-0.262,0.013-0.434,0.017c-0.171,0.007-0.35,0.019-0.533,0.031c-0.196,0.017-0.387,0.039-0.568,0.069
				c-0.188,0.029-0.338,0.07-0.458,0.124c-0.134,0.059-0.226,0.148-0.271,0.27c-0.049,0.119-0.076,0.248-0.088,0.381
				c0,0.016,0,0.031,0,0.046c0,0.016,0,0.034,0,0.051c0,0.349,0.1,0.576,0.301,0.677c0.201,0.104,0.457,0.16,0.769,0.172
				c0.046,0.006,0.095,0.008,0.146,0.012c0.051,0.002,0.102,0.002,0.153,0.002s0.099,0,0.146,0c0.051,0,0.102,0,0.147,0
				c0.108,0,0.216,0,0.322,0s0.213-0.002,0.319-0.008c0.104,0,0.211,0,0.32,0c0.108,0,0.213,0,0.316,0c0.094,0,0.184,0,0.281,0
				c0.096,0,0.189,0.002,0.289,0.008c0.09,0.007,0.187,0.014,0.278,0.02c0.095,0.003,0.188,0.014,0.279,0.021
				c0.504,0.056,0.86,0.184,1.087,0.385c0.223,0.202,0.334,0.561,0.334,1.07c0,0.297-0.048,0.56-0.141,0.791
				c-0.09,0.232-0.287,0.41-0.584,0.543c-0.166,0.076-0.358,0.127-0.584,0.156c-0.225,0.028-0.457,0.047-0.688,0.063
				c-0.122,0.005-0.248,0.008-0.369,0.01c-0.122,0.002-0.239,0.003-0.354,0.003h-0.432c-0.137,0-0.272-0.001-0.41-0.003
				c-0.14-0.002-0.276-0.005-0.414-0.01c-0.141-0.006-0.279-0.016-0.416-0.021c-0.137-0.009-0.273-0.021-0.412-0.037
				c-0.569-0.074-0.941-0.23-1.112-0.466c-0.167-0.231-0.255-0.628-0.255-1.183l0.658-0.01v0.113c0,0.014,0,0.02,0,0.021
				s0,0.006,0,0.011c0.008,0.204,0.027,0.386,0.068,0.541c0.043,0.155,0.18,0.271,0.416,0.34c0.127,0.04,0.28,0.065,0.451,0.087
				c0.174,0.018,0.354,0.033,0.54,0.043c0.162,0.006,0.324,0.01,0.489,0.012c0.158,0.005,0.304,0.005,0.427,0.005
				c0.088,0,0.174,0,0.259-0.005c0.084-0.002,0.17-0.002,0.258-0.002c0.172-0.006,0.344-0.018,0.518-0.029
				c0.173-0.014,0.341-0.03,0.509-0.055c0.312-0.036,0.534-0.119,0.679-0.254c0.144-0.127,0.217-0.354,0.217-0.666
				c0-0.414-0.104-0.668-0.313-0.754c-0.211-0.086-0.503-0.135-0.885-0.143l-1.247-0.025c-0.047,0.006-0.095,0.01-0.146,0.01
				c-0.049,0-0.096-0.004-0.146-0.01c-0.194,0-0.392-0.002-0.588-0.008c-0.193-0.004-0.39-0.014-0.578-0.023
				c-0.47-0.025-0.856-0.123-1.151-0.287c-0.295-0.172-0.445-0.495-0.445-0.987c0-0.33,0.056-0.625,0.168-0.887
				c0.111-0.261,0.336-0.452,0.666-0.579c0.15-0.051,0.332-0.096,0.535-0.125c0.209-0.033,0.424-0.053,0.645-0.064
				c0.193-0.018,0.386-0.027,0.576-0.029c0.185-0.002,0.352-0.004,0.498-0.004c0.132,0,0.263,0.002,0.398,0.004
				c0.135,0.002,0.271,0.006,0.409,0.013c0.128,0.003,0.263,0.012,0.396,0.021c0.135,0.008,0.271,0.019,0.399,0.033
				c0.478,0.049,0.822,0.191,1.035,0.43c0.213,0.237,0.315,0.588,0.315,1.052v-0.009H188.84z"/>
		</g>
		<rect x="191.782" y="47.005" fill="#1B1B1B" width="17.522" height="1.916"/>
		<rect x="5.64" y="47.005" fill="#1B1B1B" width="75.664" height="1.916"/>
	</g>
	<text transform="matrix(1.0079 0 0 1 210.4019 21.2612)" fill="#1B1B1B" font-family="'MyriadPro-Bold'" font-size="5.2754">TM</text>
</g>
</svg>
